<?xml version="1.0" encoding="utf-8"?>
<!-- Generator: Adobe Illustrator 18.1.1, SVG Export Plug-In . SVG Version: 6.00 Build 0)  -->
<svg version="1.1" id="Layer_1" xmlns="http://www.w3.org/2000/svg" xmlns:xlink="http://www.w3.org/1999/xlink" x="0px" y="0px"
	 viewBox="0 0 116 116" enable-background="new 0 0 116 116" xml:space="preserve">
<circle fill="#219E48" stroke="#000000" stroke-width="8" stroke-miterlimit="10" cx="58.1" cy="58.4" r="53.4"/>
<rect x="16.6" y="62.7" fill="#FFFFFF" stroke="#000000" stroke-width="4" stroke-miterlimit="10" width="83" height="22.5"/>
<polygon fill="#FFFFFF" stroke="#000000" stroke-width="4" stroke-miterlimit="10" points="21,39.2 95.3,39.2 85.4,31.2 30,31.2 "/>
<rect x="24.1" y="39.2" fill="#FFFFFF" stroke="#000000" stroke-width="4" stroke-miterlimit="10" width="67.5" height="23.5"/>
<polygon fill="#FFFFFF" stroke="#000000" stroke-width="4" stroke-miterlimit="10" points="68.4,62.7 48.4,62.7 48.4,28.2 
	54.6,16.7 62.6,16.7 68.4,28.2 "/>
<rect x="32.4" y="44.9" fill="#FFFFFF" stroke="#000000" stroke-width="4" stroke-miterlimit="10" width="8.3" height="12.3"/>
<rect x="76.1" y="44.9" fill="#FFFFFF" stroke="#000000" stroke-width="4" stroke-miterlimit="10" width="8.3" height="12.3"/>
<line fill="none" stroke="#000000" stroke-width="4" stroke-miterlimit="10" x1="48.4" y1="28.2" x2="68.4" y2="28.2"/>
<rect x="55" y="32.9" fill="none" stroke="#000000" stroke-width="4" stroke-miterlimit="10" width="6.8" height="10.8"/>
<line fill="none" stroke="#000000" stroke-width="4" stroke-miterlimit="10" x1="25.8" y1="62.7" x2="25.8" y2="85.2"/>
<line fill="none" stroke="#000000" stroke-width="4" stroke-miterlimit="10" x1="35.5" y1="63.9" x2="35.5" y2="86.1"/>
<line fill="none" stroke="#000000" stroke-width="4" stroke-miterlimit="10" x1="80.9" y1="63.1" x2="80.9" y2="85.2"/>
<line fill="none" stroke="#000000" stroke-width="4" stroke-miterlimit="10" x1="90.3" y1="63.1" x2="90.3" y2="85.2"/>
<line fill="none" stroke="#000000" stroke-width="4" stroke-miterlimit="10" x1="45.3" y1="62.9" x2="45.3" y2="85"/>
<line fill="none" stroke="#000000" stroke-width="4" stroke-miterlimit="10" x1="71.5" y1="62.9" x2="71.5" y2="85"/>
<rect x="55" y="69.4" fill="none" stroke="#000000" stroke-width="4" stroke-miterlimit="10" width="6.8" height="14.6"/>
<rect x="54.6" y="49.4" fill="#FFFFFF" stroke="#000000" stroke-width="4" stroke-miterlimit="10" width="7.6" height="13.3"/>
</svg>
