<?xml version="1.0" encoding="utf-8"?>
<!-- Generator: Adobe Illustrator 18.1.1, SVG Export Plug-In . SVG Version: 6.00 Build 0)  -->
<svg version="1.1" id="Layer_1" xmlns="http://www.w3.org/2000/svg" xmlns:xlink="http://www.w3.org/1999/xlink" x="0px" y="0px"
	 viewBox="0 0 116 116" enable-background="new 0 0 116 116" xml:space="preserve">
<circle fill="#219E48" stroke="#000000" stroke-width="8" stroke-miterlimit="10" cx="58.1" cy="58.4" r="53.4"/>
<path fill="#FFFFFF" stroke="#000000" stroke-width="4" stroke-miterlimit="10" d="M80.8,34.8c-1.5-3.7-6.7-6.4-13-6.4
	c-3.5,0-6.7,0.8-9,2.1c-2.8-1.4-6.3-2.2-10.1-2.2c-9.6,0-17.4,5.2-17.5,11.7c0,0.4,0,0.9,0.1,1.3c-5.2,0.9-9,4-9.1,7.7
	c0,4.4,5.3,8.1,12,8.1c1.5,0,2.8-0.2,4.1-0.5c0.7,4.2,4.9,7.4,9.9,7.5c0.9,0,1.8-0.1,2.7-0.3v16.9c0,1-0.3,1.9-0.9,2.7l-5.3,7h27.1
	l-4-6.7c-0.6-1.1-1-2.3-1-3.6V65.6c1.5-0.6,2.9-1.4,4.1-2.5c1.5,0.4,3.2,0.7,4.9,0.7c9,0,16.3-6.6,16.3-14.7
	C92.1,42.4,87.3,36.7,80.8,34.8z"/>
</svg>
