<?xml version="1.0" encoding="utf-8"?>
<!-- Generator: Adobe Illustrator 18.1.1, SVG Export Plug-In . SVG Version: 6.00 Build 0)  -->
<svg version="1.1" id="Layer_1" xmlns="http://www.w3.org/2000/svg" xmlns:xlink="http://www.w3.org/1999/xlink" x="0px" y="0px"
	 viewBox="0 0 604.8 273.6" enable-background="new 0 0 604.8 273.6" xml:space="preserve">
<path fill="none" stroke="#000000" stroke-width="3" stroke-miterlimit="10" d="M475.4,156.4"/>
<path fill="none" stroke="#000000" stroke-width="3" stroke-miterlimit="10" d="M475.4,29.4"/>
<line fill="none" stroke="#000000" stroke-width="3" stroke-miterlimit="10" x1="475.4" y1="4.7" x2="475.4" y2="29.4"/>
<path fill="none" stroke="#000000" stroke-width="3" stroke-miterlimit="10" d="M496.3,151.3"/>
<path fill="none" stroke="#000000" stroke-width="3" stroke-miterlimit="10" d="M453.2,33"/>
<line fill="none" stroke="#000000" stroke-width="3" stroke-miterlimit="10" x1="444.9" y1="10" x2="453.2" y2="33"/>
<line fill="none" stroke="#000000" stroke-width="3" stroke-miterlimit="10" x1="517.6" y1="144.2" x2="532.9" y2="162.5"/>
<path fill="none" stroke="#000000" stroke-width="3" stroke-miterlimit="10" d="M517.6,144.2"/>
<path fill="none" stroke="#000000" stroke-width="3" stroke-miterlimit="10" d="M444.9,57.6"/>
<line fill="none" stroke="#000000" stroke-width="3" stroke-miterlimit="10" x1="531.8" y1="125.5" x2="552.8" y2="138.7"/>
<path fill="none" stroke="#000000" stroke-width="3" stroke-miterlimit="10" d="M531.8,125.5"/>
<path fill="none" stroke="#000000" stroke-width="3" stroke-miterlimit="10" d="M435.4,65"/>
<path fill="none" stroke="#000000" stroke-width="3" stroke-miterlimit="10" d="M454.6,151.3"/>
<path fill="none" stroke="#000000" stroke-width="3" stroke-miterlimit="10" d="M497.4,33.7"/>
<line fill="none" stroke="#000000" stroke-width="3" stroke-miterlimit="10" x1="506" y1="10" x2="497.4" y2="33.7"/>
<path fill="none" stroke="#000000" stroke-width="3" stroke-miterlimit="10" d="M439.1,137.4"/>
<path fill="none" stroke="#000000" stroke-width="3" stroke-miterlimit="10" d="M516.4,45.2"/>
<line fill="none" stroke="#000000" stroke-width="3" stroke-miterlimit="10" x1="532.9" y1="25.6" x2="516.4" y2="45.2"/>
<path fill="none" stroke="#000000" stroke-width="3" stroke-miterlimit="10" d="M430.1,126"/>
<path fill="none" stroke="#000000" stroke-width="3" stroke-miterlimit="10" d="M531,63"/>
<line fill="none" stroke="#000000" stroke-width="3" stroke-miterlimit="10" x1="552.8" y1="49.3" x2="531" y2="63"/>
<path fill="none" stroke="#000000" stroke-width="3" stroke-miterlimit="10" d="M429.9,103.8"/>
<path fill="none" stroke="#000000" stroke-width="3" stroke-miterlimit="10" d="M538.1,83.3"/>
<line fill="none" stroke="#000000" stroke-width="3" stroke-miterlimit="10" x1="563.5" y1="78.5" x2="538.1" y2="83.3"/>
<path fill="none" stroke="#000000" stroke-width="3" stroke-miterlimit="10" d="M434.5,85"/>
<path fill="none" stroke="#000000" stroke-width="3" stroke-miterlimit="10" d="M538.5,104.8"/>
<line fill="none" stroke="#000000" stroke-width="3" stroke-miterlimit="10" x1="563.5" y1="109.5" x2="538.5" y2="104.8"/>
<g>
	<path d="M2.4,129V43.9h13.4c7.8,0,13.4,0.5,17,1.5c5.1,1.3,9.1,3.9,12.2,7.5c3,3.7,4.5,8,4.5,13c0,3.2-0.7,6.2-2.1,8.8
		c-1.4,2.6-3.6,5.1-6.7,7.4c5.2,2.4,8.9,5.5,11.3,9.1c2.4,3.6,3.6,8,3.6,12.9c0,4.8-1.2,9.1-3.7,13.1c-2.5,3.9-5.7,6.9-9.6,8.8
		c-3.9,1.9-9.3,2.9-16.1,2.9H2.4z M18.6,59.4v17.9h3.5c3.9,0,6.9-0.8,8.8-2.5c1.9-1.7,2.9-3.9,2.9-6.8c0-2.7-0.9-4.8-2.7-6.3
		c-1.8-1.6-4.6-2.3-8.3-2.3H18.6z M18.6,91.7v21.8h4.1c6.7,0,11.3-0.8,13.6-2.5c2.3-1.7,3.5-4.2,3.5-7.4c0-3.7-1.4-6.6-4.1-8.7
		c-2.7-2.1-7.3-3.2-13.7-3.2H18.6z"/>
	<path d="M109,66.1h15.8V129H109v-6.6c-3.1,2.9-6.2,5-9.3,6.3c-3.1,1.3-6.5,1.9-10.1,1.9c-8.1,0-15.2-3.2-21.1-9.5
		c-5.9-6.3-8.9-14.1-8.9-23.5c0-9.7,2.9-17.7,8.6-23.9c5.7-6.2,12.7-9.3,20.9-9.3c3.8,0,7.3,0.7,10.6,2.1c3.3,1.4,6.4,3.6,9.2,6.4
		V66.1z M92.4,79c-4.9,0-8.9,1.7-12.2,5.2c-3.2,3.5-4.8,7.9-4.8,13.3c0,5.4,1.6,9.9,4.9,13.4c3.3,3.5,7.3,5.3,12.1,5.3
		c5,0,9.1-1.7,12.3-5.2c3.3-3.4,4.9-8,4.9-13.6c0-5.5-1.6-9.9-4.9-13.3C101.5,80.7,97.4,79,92.4,79z"/>
	<path d="M135.6,41.8h15.8V129h-15.8V41.8z"/>
	<path d="M167.7,42.9h15.8v23.2h9.4v13.6h-9.4V129h-15.8V79.7h-8.1V66.1h8.1V42.9z"/>
	<path d="M207.4,40.2c2.8,0,5.1,1,7.1,3c2,2,3,4.4,3,7.3c0,2.8-1,5.2-2.9,7.2s-4.3,3-7,3c-2.8,0-5.2-1-7.2-3c-2-2-3-4.5-3-7.4
		c0-2.8,1-5.1,2.9-7.1C202.3,41.1,204.7,40.2,207.4,40.2z M199.5,66.1h15.8V129h-15.8V66.1z"/>
	<path d="M229.5,66.1h15.8v7.2c2.7-3,5.7-5.2,9-6.6c3.3-1.5,6.9-2.2,10.8-2.2c3.9,0,7.5,1,10.6,2.9c3.2,1.9,5.7,4.7,7.6,8.4
		c2.5-3.7,5.6-6.5,9.2-8.4c3.6-1.9,7.6-2.9,11.9-2.9c4.5,0,8.4,1,11.8,3.1c3.4,2.1,5.8,4.8,7.3,8.2c1.5,3.4,2.2,8.8,2.2,16.4V129
		H310V97.1c0-7.1-0.9-12-2.7-14.5c-1.8-2.5-4.4-3.8-8-3.8c-2.7,0-5.1,0.8-7.3,2.3c-2.1,1.5-3.7,3.7-4.8,6.4c-1,2.7-1.6,7.1-1.6,13.1
		V129h-15.9V98.5c0-5.6-0.4-9.7-1.2-12.2c-0.8-2.5-2.1-4.4-3.7-5.6c-1.7-1.2-3.7-1.9-6-1.9c-2.6,0-5,0.8-7.2,2.3
		c-2.1,1.6-3.7,3.7-4.8,6.6c-1.1,2.8-1.6,7.2-1.6,13.3v28h-15.8V66.1z"/>
	<path d="M363.7,64.4c5.9,0,11.5,1.5,16.7,4.5c5.2,3,9.3,7,12.2,12.1c2.9,5.1,4.4,10.6,4.4,16.5c0,5.9-1.5,11.5-4.4,16.7
		c-2.9,5.2-7,9.2-12.1,12.1c-5.1,2.9-10.7,4.4-16.8,4.4c-9,0-16.7-3.2-23.1-9.6c-6.4-6.4-9.6-14.2-9.6-23.4c0-9.8,3.6-18,10.8-24.6
		C348.3,67.3,355.5,64.4,363.7,64.4z M364,79.3c-4.9,0-9,1.7-12.2,5.1c-3.3,3.4-4.9,7.8-4.9,13.1c0,5.5,1.6,9.9,4.8,13.3
		c3.2,3.4,7.3,5.1,12.3,5.1c4.9,0,9.1-1.7,12.3-5.1c3.3-3.4,4.9-7.8,4.9-13.2c0-5.4-1.6-9.8-4.8-13.2C373.1,81,369,79.3,364,79.3z"
		/>
	<path d="M406.3,66.1h13.5V74c1.5-3.1,3.4-5.5,5.8-7.1c2.4-1.6,5.1-2.4,8-2.4c2,0,4.2,0.5,6.4,1.6l-4.9,13.6
		c-1.9-0.9-3.4-1.4-4.6-1.4c-2.4,0-4.5,1.5-6.2,4.5c-1.7,3-2.5,8.9-2.5,17.7l0.1,3.1V129h-15.7V66.1z"/>
	<path d="M507.5,102.1h-50.7c0.7,4.5,2.7,8,5.9,10.7c3.2,2.6,7.2,4,12.2,4c5.9,0,11-2.1,15.2-6.2l13.3,6.2
		c-3.3,4.7-7.3,8.2-11.9,10.4c-4.6,2.3-10.1,3.4-16.5,3.4c-9.9,0-17.9-3.1-24.1-9.3c-6.2-6.2-9.3-14-9.3-23.4
		c0-9.6,3.1-17.6,9.3-23.9c6.2-6.3,13.9-9.5,23.3-9.5c9.9,0,18,3.2,24.2,9.5c6.2,6.3,9.3,14.7,9.3,25.1L507.5,102.1z M491.7,89.7
		c-1-3.5-3.1-6.4-6.2-8.6c-3.1-2.2-6.6-3.3-10.7-3.3c-4.4,0-8.3,1.2-11.6,3.7c-2.1,1.5-4,4.3-5.8,8.2H491.7z"/>
	<path d="M323.5,186h17.2c9.3,0,16,0.9,20.1,2.6c4.1,1.7,7.3,4.5,9.7,8.3c2.4,3.8,3.6,8.4,3.6,13.8c0,5.9-1.6,10.9-4.7,14.8
		c-3.1,3.9-7.3,6.7-12.6,8.2c-3.1,0.9-8.8,1.3-17.1,1.3v36h-16.2V186z M339.7,219.3h5.1c4,0,6.9-0.3,8.4-0.9
		c1.6-0.6,2.8-1.5,3.7-2.9c0.9-1.3,1.4-2.9,1.4-4.8c0-3.3-1.3-5.7-3.8-7.2c-1.9-1.1-5.3-1.7-10.3-1.7h-4.6V219.3z"/>
	<path d="M424.4,208.2h15.8v62.9h-15.8v-6.6c-3.1,2.9-6.2,5-9.3,6.3c-3.1,1.3-6.5,1.9-10.1,1.9c-8.1,0-15.1-3.2-21.1-9.5
		c-5.9-6.3-8.9-14.1-8.9-23.5c0-9.7,2.9-17.7,8.6-23.9c5.7-6.2,12.7-9.3,20.9-9.3c3.8,0,7.3,0.7,10.6,2.1c3.3,1.4,6.4,3.6,9.2,6.4
		V208.2z M407.8,221.1c-4.9,0-8.9,1.7-12.2,5.2c-3.2,3.5-4.8,7.9-4.8,13.3c0,5.4,1.6,9.9,4.9,13.4c3.3,3.5,7.3,5.3,12.1,5.3
		c5,0,9.1-1.7,12.3-5.2s4.9-8,4.9-13.6c0-5.5-1.6-9.9-4.9-13.3C417,222.8,412.8,221.1,407.8,221.1z"/>
	<path d="M452.5,208.2H466v7.9c1.5-3.1,3.4-5.5,5.8-7.1c2.4-1.6,5.1-2.4,8-2.4c2,0,4.2,0.5,6.4,1.6l-4.9,13.6
		c-1.9-0.9-3.4-1.4-4.6-1.4c-2.4,0-4.5,1.5-6.2,4.5c-1.7,3-2.5,8.9-2.5,17.7l0.1,3.1v25.4h-15.7V208.2z"/>
	<path d="M494.2,183.9h15.8v50.2l23.2-25.9H553l-27.1,30.2l30.3,32.8h-19.6l-26.7-29v29h-15.8V183.9z"/>
	<path d="M601.2,217l-9.8,9.8c-4-3.9-7.6-5.9-10.8-5.9c-1.8,0-3.2,0.4-4.2,1.1c-1,0.8-1.5,1.7-1.5,2.8c0,0.8,0.3,1.6,1,2.3
		c0.6,0.7,2.2,1.7,4.7,2.9l5.8,2.9c6.1,3,10.3,6.1,12.5,9.2c2.3,3.1,3.4,6.8,3.4,11c0,5.6-2.1,10.3-6.2,14
		c-4.1,3.7-9.6,5.6-16.5,5.6c-9.2,0-16.5-3.6-22-10.8l9.7-10.6c1.9,2.2,4,3.9,6.5,5.2c2.5,1.3,4.7,2,6.6,2c2.1,0,3.8-0.5,5-1.5
		c1.3-1,1.9-2.2,1.9-3.5c0-2.4-2.3-4.8-6.9-7.1l-5.3-2.7c-10.2-5.1-15.3-11.5-15.3-19.3c0-5,1.9-9.2,5.8-12.8
		c3.8-3.5,8.7-5.3,14.7-5.3c4.1,0,7.9,0.9,11.5,2.7C595.7,211,598.7,213.6,601.2,217z"/>
</g>
<rect x="4.2" y="263.2" width="321.1" height="7.9"/>
<g>
	<polygon points="23.6,208.4 34.9,188.9 46.2,208.4 	"/>
	<polygon points="18.7,226.7 34.9,198.7 51.1,226.7 	"/>
	<polygon points="13.1,247.1 34.9,209.3 56.7,247.1 	"/>
	<polygon points="9.4,264 34.9,219.9 60.4,264 	"/>
</g>
<g>
	<polygon points="52.3,189.3 60.5,163 68.7,189.3 	"/>
	<polygon points="48.7,213.8 60.5,176.1 72.3,213.8 	"/>
	<polygon points="44.7,241.2 60.5,190.4 76.3,241.2 	"/>
	<polygon points="42,264 60.5,204.7 79,264 	"/>
</g>
<g>
	<polygon points="77.6,226.2 90.3,212.8 103,226.2 	"/>
	<polygon points="72.1,238.8 90.3,219.5 108.5,238.8 	"/>
	<polygon points="65.7,252.8 90.3,226.8 114.8,252.8 	"/>
	<polygon points="61.6,264.4 90.3,234.1 118.9,264.4 	"/>
</g>
<g>
	<polygon points="216.9,198.4 231,175.5 245,198.4 	"/>
	<polygon points="210.7,219.8 231,187 251.2,219.8 	"/>
	<polygon points="203.7,243.6 231,199.4 258.2,243.6 	"/>
	<polygon points="199.1,263.5 231,211.8 262.8,263.5 	"/>
</g>
<g>
	<polygon points="249.4,175.3 257.6,144.4 265.8,175.3 	"/>
	<polygon points="245.9,204.1 257.6,159.8 269.4,204.1 	"/>
	<polygon points="241.8,236.4 257.6,176.6 273.5,236.4 	"/>
	<polygon points="239.1,263.2 257.6,193.4 276.1,263.2 	"/>
</g>
<g>
	<polygon points="270.4,229.4 279.2,217.1 287.9,229.4 	"/>
	<polygon points="266.6,241 279.2,223.2 291.7,241 	"/>
	<polygon points="262.3,253.9 279.2,230 296,253.9 	"/>
	<polygon points="259.5,264.7 279.2,236.7 298.8,264.7 	"/>
</g>
<g>
	<polygon points="182.3,223.4 191.1,209.3 199.8,223.4 	"/>
	<polygon points="178.6,236.6 191.1,216.4 203.6,236.6 	"/>
	<polygon points="174.2,251.4 191.1,224.1 207.9,251.4 	"/>
	<polygon points="171.4,263.7 191.1,231.7 210.7,263.7 	"/>
</g>
<path fill="none" stroke="#000000" stroke-width="3" stroke-miterlimit="10" d="M439.9,53.1c9.3-7.7,21.3-12.3,34.4-12.3
	c29.9,0,54.1,24.2,54.1,54.1s-24.2,54.1-54.1,54.1c-14.5,0-27.7-5.7-37.4-15"/>
</svg>
