<?xml version="1.0" encoding="utf-8"?>
<!-- Generator: Adobe Illustrator 18.1.1, SVG Export Plug-In . SVG Version: 6.00 Build 0)  -->
<svg version="1.1" id="Layer_1" xmlns="http://www.w3.org/2000/svg" xmlns:xlink="http://www.w3.org/1999/xlink" x="0px" y="0px"
	 viewBox="0 0 116 116" enable-background="new 0 0 116 116" xml:space="preserve">
<circle fill="#219E48" stroke="#000000" stroke-width="8" stroke-miterlimit="10" cx="58.2" cy="58.4" r="53.4"/>
<g>
	<g>
		<path fill="#FFFFFF" stroke="#000000" stroke-width="4" stroke-miterlimit="10" d="M27.7,40.4h61.3c0,0-8.7-5.4-10.8-8.1
			c-1.3-1.7-3.4-8.1-3.4-8.1H42.3c0,0-2.7,6.3-4.1,8.1C36.1,34.9,27.7,40.4,27.7,40.4z"/>
	</g>
	<rect x="34.8" y="40.4" fill="#FFFFFF" stroke="#000000" stroke-width="4" stroke-miterlimit="10" width="47.7" height="52"/>
	<path fill="#FFFFFF" stroke="#000000" stroke-width="4" stroke-miterlimit="10" d="M24.5,71.5h67.4c0,0-6.1-5.6-7.4-8.1
		c-1-1.8-1.9-8.1-1.9-8.1H34.8c0,0-1.6,6.2-2.7,8.1C30.7,65.6,24.5,71.5,24.5,71.5z"/>
</g>
<rect x="55.8" y="45.1" fill="none" stroke="#000000" stroke-width="3" stroke-miterlimit="10" width="5.6" height="5.7"/>
<rect x="53.6" y="77.6" fill="none" stroke="#000000" stroke-width="3" stroke-miterlimit="10" width="10" height="14.8"/>
<rect x="70.5" y="45.1" fill="none" stroke="#000000" stroke-width="3" stroke-miterlimit="10" width="5.6" height="5.7"/>
<rect x="41.2" y="45.1" fill="none" stroke="#000000" stroke-width="3" stroke-miterlimit="10" width="5.6" height="5.7"/>
<rect x="70.1" y="76.8" fill="none" stroke="#000000" stroke-width="3" stroke-miterlimit="10" width="5.6" height="5.7"/>
<rect x="42" y="76.8" fill="none" stroke="#000000" stroke-width="3" stroke-miterlimit="10" width="5.6" height="5.7"/>
</svg>
