<?xml version="1.0" encoding="utf-8"?>
<!-- Generator: Adobe Illustrator 18.1.1, SVG Export Plug-In . SVG Version: 6.00 Build 0)  -->
<svg version="1.1" id="Layer_1" xmlns="http://www.w3.org/2000/svg" xmlns:xlink="http://www.w3.org/1999/xlink" x="0px" y="0px"
	 viewBox="0 0 116 116" enable-background="new 0 0 116 116" xml:space="preserve">
<circle fill="#219E48" stroke="#000000" stroke-width="8" stroke-miterlimit="10" cx="58.1" cy="58.4" r="53.4"/>
<g>
	<path fill="#FFFFFF" stroke="#000000" stroke-width="4" stroke-miterlimit="10" d="M96.3,87.3H17.2l5.5-6.2V44.2
		c0,0-2.3-4.7,6.2-9.1L46,25.7l10.8-6L86.2,32c0,0,8,2.3,8.3,7.5v39.5l6.2,8.3H96.3z"/>
	<line fill="none" stroke="#000000" stroke-width="4" stroke-miterlimit="10" x1="22.6" y1="44.2" x2="93.5" y2="44.2"/>
	<line fill="none" stroke="#000000" stroke-width="4" stroke-miterlimit="10" x1="32.3" y1="44.2" x2="32.3" y2="87.3"/>
	<line fill="none" stroke="#000000" stroke-width="4" stroke-miterlimit="10" x1="43" y1="44.2" x2="43" y2="87.3"/>
	<line fill="none" stroke="#000000" stroke-width="4" stroke-miterlimit="10" x1="53.7" y1="44.2" x2="53.7" y2="87.3"/>
	<line fill="none" stroke="#000000" stroke-width="4" stroke-miterlimit="10" x1="64.3" y1="44.2" x2="64.3" y2="87.3"/>
	<line fill="none" stroke="#000000" stroke-width="4" stroke-miterlimit="10" x1="75.1" y1="44.2" x2="75.1" y2="87.3"/>
	<line fill="none" stroke="#000000" stroke-width="4" stroke-miterlimit="10" x1="85.8" y1="44.2" x2="85.8" y2="87.3"/>
	<line fill="none" stroke="#000000" stroke-width="4" stroke-miterlimit="10" x1="22.6" y1="56.5" x2="93.5" y2="56.5"/>
	<line fill="none" stroke="#000000" stroke-width="4" stroke-miterlimit="10" x1="22.6" y1="66.5" x2="94.5" y2="66.5"/>
</g>
</svg>
